# xmcd
#
# Track frame offsets: 
#        150
#        17117
#        32141
#        62459
#        75127
#        86241
#        99888
#        121130
#
# Disc length: 2805 seconds
#
# Revision: 0
# Processed by: cddbd v1.5.2PL0 Copyright (c) Steve Scherf et al.
# Submitted via: ExactAudioCopy v1.1
#
DISCID=4f0af308
DTITLE=Canned Heat - Living The Blues - Disc 1
DYEAR=1968
DGENRE=Blues
TTITLE0=Pony Blues (stereo)
TTITLE1=My Mistake (stereo)
TTITLE2=Sandy's Blues (stereo)
TTITLE3=Going Up The Country (stereo)
TTITLE4=Walking By Myself (stereo)
TTITLE5=Boogie Music (stereo)
TTITLE6=One Kind Favor (stereo)
TTITLE7=Parthenogenesis (stereo)
EXTD=
EXTT0=
EXTT1=
EXTT2=
EXTT3=
EXTT4=
EXTT5=
EXTT6=
EXTT7=
PLAYORDER=
